<?xml version="1.0" encoding="utf-8" standalone="no"?>
<!DOCTYPE svg PUBLIC "-//W3C//DTD SVG 1.1//EN"
  "http://www.w3.org/Graphics/SVG/1.1/DTD/svg11.dtd">
<!-- Created with matplotlib (https://matplotlib.org/) -->
<svg height="345.6pt" version="1.1" viewBox="0 0 460.8 345.6" width="460.8pt" xmlns="http://www.w3.org/2000/svg" xmlns:xlink="http://www.w3.org/1999/xlink">
 <defs>
  <style type="text/css">
*{stroke-linecap:butt;stroke-linejoin:round;}
  </style>
 </defs>
 <g id="figure_1">
  <g id="patch_1">
   <path d="M 0 345.6 
L 460.8 345.6 
L 460.8 0 
L 0 0 
z
" style="fill:#ffffff;"/>
  </g>
  <g id="axes_1">
   <g id="patch_2">
    <path d="M 57.6 307.584 
L 414.72 307.584 
L 414.72 41.472 
L 57.6 41.472 
z
" style="fill:#ffffff;"/>
   </g>
   <g id="matplotlib.axis_1">
    <g id="xtick_1">
     <g id="line2d_1">
      <defs>
       <path d="M 0 0 
L 0 3.5 
" id="mf602aa857f" style="stroke:#000000;stroke-width:0.8;"/>
      </defs>
      <g>
       <use style="stroke:#000000;stroke-width:0.8;" x="73.832727" xlink:href="#mf602aa857f" y="307.584"/>
      </g>
     </g>
     <g id="text_1">
      <!-- 0 -->
      <defs>
       <path d="M 31.78125 66.40625 
Q 24.171875 66.40625 20.328125 58.90625 
Q 16.5 51.421875 16.5 36.375 
Q 16.5 21.390625 20.328125 13.890625 
Q 24.171875 6.390625 31.78125 6.390625 
Q 39.453125 6.390625 43.28125 13.890625 
Q 47.125 21.390625 47.125 36.375 
Q 47.125 51.421875 43.28125 58.90625 
Q 39.453125 66.40625 31.78125 66.40625 
z
M 31.78125 74.21875 
Q 44.046875 74.21875 50.515625 64.515625 
Q 56.984375 54.828125 56.984375 36.375 
Q 56.984375 17.96875 50.515625 8.265625 
Q 44.046875 -1.421875 31.78125 -1.421875 
Q 19.53125 -1.421875 13.0625 8.265625 
Q 6.59375 17.96875 6.59375 36.375 
Q 6.59375 54.828125 13.0625 64.515625 
Q 19.53125 74.21875 31.78125 74.21875 
z
" id="DejaVuSans-48"/>
      </defs>
      <g transform="translate(70.651477 322.182437)scale(0.1 -0.1)">
       <use xlink:href="#DejaVuSans-48"/>
      </g>
     </g>
    </g>
    <g id="xtick_2">
     <g id="line2d_2">
      <g>
       <use style="stroke:#000000;stroke-width:0.8;" x="118.305953" xlink:href="#mf602aa857f" y="307.584"/>
      </g>
     </g>
     <g id="text_2">
      <!-- 10 -->
      <defs>
       <path d="M 12.40625 8.296875 
L 28.515625 8.296875 
L 28.515625 63.921875 
L 10.984375 60.40625 
L 10.984375 69.390625 
L 28.421875 72.90625 
L 38.28125 72.90625 
L 38.28125 8.296875 
L 54.390625 8.296875 
L 54.390625 0 
L 12.40625 0 
z
" id="DejaVuSans-49"/>
      </defs>
      <g transform="translate(111.943453 322.182437)scale(0.1 -0.1)">
       <use xlink:href="#DejaVuSans-49"/>
       <use x="63.623047" xlink:href="#DejaVuSans-48"/>
      </g>
     </g>
    </g>
    <g id="xtick_3">
     <g id="line2d_3">
      <g>
       <use style="stroke:#000000;stroke-width:0.8;" x="162.779178" xlink:href="#mf602aa857f" y="307.584"/>
      </g>
     </g>
     <g id="text_3">
      <!-- 20 -->
      <defs>
       <path d="M 19.1875 8.296875 
L 53.609375 8.296875 
L 53.609375 0 
L 7.328125 0 
L 7.328125 8.296875 
Q 12.9375 14.109375 22.625 23.890625 
Q 32.328125 33.6875 34.8125 36.53125 
Q 39.546875 41.84375 41.421875 45.53125 
Q 43.3125 49.21875 43.3125 52.78125 
Q 43.3125 58.59375 39.234375 62.25 
Q 35.15625 65.921875 28.609375 65.921875 
Q 23.96875 65.921875 18.8125 64.3125 
Q 13.671875 62.703125 7.8125 59.421875 
L 7.8125 69.390625 
Q 13.765625 71.78125 18.9375 73 
Q 24.125 74.21875 28.421875 74.21875 
Q 39.75 74.21875 46.484375 68.546875 
Q 53.21875 62.890625 53.21875 53.421875 
Q 53.21875 48.921875 51.53125 44.890625 
Q 49.859375 40.875 45.40625 35.40625 
Q 44.1875 33.984375 37.640625 27.21875 
Q 31.109375 20.453125 19.1875 8.296875 
z
" id="DejaVuSans-50"/>
      </defs>
      <g transform="translate(156.416678 322.182437)scale(0.1 -0.1)">
       <use xlink:href="#DejaVuSans-50"/>
       <use x="63.623047" xlink:href="#DejaVuSans-48"/>
      </g>
     </g>
    </g>
    <g id="xtick_4">
     <g id="line2d_4">
      <g>
       <use style="stroke:#000000;stroke-width:0.8;" x="207.252403" xlink:href="#mf602aa857f" y="307.584"/>
      </g>
     </g>
     <g id="text_4">
      <!-- 30 -->
      <defs>
       <path d="M 40.578125 39.3125 
Q 47.65625 37.796875 51.625 33 
Q 55.609375 28.21875 55.609375 21.1875 
Q 55.609375 10.40625 48.1875 4.484375 
Q 40.765625 -1.421875 27.09375 -1.421875 
Q 22.515625 -1.421875 17.65625 -0.515625 
Q 12.796875 0.390625 7.625 2.203125 
L 7.625 11.71875 
Q 11.71875 9.328125 16.59375 8.109375 
Q 21.484375 6.890625 26.8125 6.890625 
Q 36.078125 6.890625 40.9375 10.546875 
Q 45.796875 14.203125 45.796875 21.1875 
Q 45.796875 27.640625 41.28125 31.265625 
Q 36.765625 34.90625 28.71875 34.90625 
L 20.21875 34.90625 
L 20.21875 43.015625 
L 29.109375 43.015625 
Q 36.375 43.015625 40.234375 45.921875 
Q 44.09375 48.828125 44.09375 54.296875 
Q 44.09375 59.90625 40.109375 62.90625 
Q 36.140625 65.921875 28.71875 65.921875 
Q 24.65625 65.921875 20.015625 65.03125 
Q 15.375 64.15625 9.8125 62.3125 
L 9.8125 71.09375 
Q 15.4375 72.65625 20.34375 73.4375 
Q 25.25 74.21875 29.59375 74.21875 
Q 40.828125 74.21875 47.359375 69.109375 
Q 53.90625 64.015625 53.90625 55.328125 
Q 53.90625 49.265625 50.4375 45.09375 
Q 46.96875 40.921875 40.578125 39.3125 
z
" id="DejaVuSans-51"/>
      </defs>
      <g transform="translate(200.889903 322.182437)scale(0.1 -0.1)">
       <use xlink:href="#DejaVuSans-51"/>
       <use x="63.623047" xlink:href="#DejaVuSans-48"/>
      </g>
     </g>
    </g>
    <g id="xtick_5">
     <g id="line2d_5">
      <g>
       <use style="stroke:#000000;stroke-width:0.8;" x="251.725629" xlink:href="#mf602aa857f" y="307.584"/>
      </g>
     </g>
     <g id="text_5">
      <!-- 40 -->
      <defs>
       <path d="M 37.796875 64.3125 
L 12.890625 25.390625 
L 37.796875 25.390625 
z
M 35.203125 72.90625 
L 47.609375 72.90625 
L 47.609375 25.390625 
L 58.015625 25.390625 
L 58.015625 17.1875 
L 47.609375 17.1875 
L 47.609375 0 
L 37.796875 0 
L 37.796875 17.1875 
L 4.890625 17.1875 
L 4.890625 26.703125 
z
" id="DejaVuSans-52"/>
      </defs>
      <g transform="translate(245.363129 322.182437)scale(0.1 -0.1)">
       <use xlink:href="#DejaVuSans-52"/>
       <use x="63.623047" xlink:href="#DejaVuSans-48"/>
      </g>
     </g>
    </g>
    <g id="xtick_6">
     <g id="line2d_6">
      <g>
       <use style="stroke:#000000;stroke-width:0.8;" x="296.198854" xlink:href="#mf602aa857f" y="307.584"/>
      </g>
     </g>
     <g id="text_6">
      <!-- 50 -->
      <defs>
       <path d="M 10.796875 72.90625 
L 49.515625 72.90625 
L 49.515625 64.59375 
L 19.828125 64.59375 
L 19.828125 46.734375 
Q 21.96875 47.46875 24.109375 47.828125 
Q 26.265625 48.1875 28.421875 48.1875 
Q 40.625 48.1875 47.75 41.5 
Q 54.890625 34.8125 54.890625 23.390625 
Q 54.890625 11.625 47.5625 5.09375 
Q 40.234375 -1.421875 26.90625 -1.421875 
Q 22.3125 -1.421875 17.546875 -0.640625 
Q 12.796875 0.140625 7.71875 1.703125 
L 7.71875 11.625 
Q 12.109375 9.234375 16.796875 8.0625 
Q 21.484375 6.890625 26.703125 6.890625 
Q 35.15625 6.890625 40.078125 11.328125 
Q 45.015625 15.765625 45.015625 23.390625 
Q 45.015625 31 40.078125 35.4375 
Q 35.15625 39.890625 26.703125 39.890625 
Q 22.75 39.890625 18.8125 39.015625 
Q 14.890625 38.140625 10.796875 36.28125 
z
" id="DejaVuSans-53"/>
      </defs>
      <g transform="translate(289.836354 322.182437)scale(0.1 -0.1)">
       <use xlink:href="#DejaVuSans-53"/>
       <use x="63.623047" xlink:href="#DejaVuSans-48"/>
      </g>
     </g>
    </g>
    <g id="xtick_7">
     <g id="line2d_7">
      <g>
       <use style="stroke:#000000;stroke-width:0.8;" x="340.67208" xlink:href="#mf602aa857f" y="307.584"/>
      </g>
     </g>
     <g id="text_7">
      <!-- 60 -->
      <defs>
       <path d="M 33.015625 40.375 
Q 26.375 40.375 22.484375 35.828125 
Q 18.609375 31.296875 18.609375 23.390625 
Q 18.609375 15.53125 22.484375 10.953125 
Q 26.375 6.390625 33.015625 6.390625 
Q 39.65625 6.390625 43.53125 10.953125 
Q 47.40625 15.53125 47.40625 23.390625 
Q 47.40625 31.296875 43.53125 35.828125 
Q 39.65625 40.375 33.015625 40.375 
z
M 52.59375 71.296875 
L 52.59375 62.3125 
Q 48.875 64.0625 45.09375 64.984375 
Q 41.3125 65.921875 37.59375 65.921875 
Q 27.828125 65.921875 22.671875 59.328125 
Q 17.53125 52.734375 16.796875 39.40625 
Q 19.671875 43.65625 24.015625 45.921875 
Q 28.375 48.1875 33.59375 48.1875 
Q 44.578125 48.1875 50.953125 41.515625 
Q 57.328125 34.859375 57.328125 23.390625 
Q 57.328125 12.15625 50.6875 5.359375 
Q 44.046875 -1.421875 33.015625 -1.421875 
Q 20.359375 -1.421875 13.671875 8.265625 
Q 6.984375 17.96875 6.984375 36.375 
Q 6.984375 53.65625 15.1875 63.9375 
Q 23.390625 74.21875 37.203125 74.21875 
Q 40.921875 74.21875 44.703125 73.484375 
Q 48.484375 72.75 52.59375 71.296875 
z
" id="DejaVuSans-54"/>
      </defs>
      <g transform="translate(334.30958 322.182437)scale(0.1 -0.1)">
       <use xlink:href="#DejaVuSans-54"/>
       <use x="63.623047" xlink:href="#DejaVuSans-48"/>
      </g>
     </g>
    </g>
    <g id="xtick_8">
     <g id="line2d_8">
      <g>
       <use style="stroke:#000000;stroke-width:0.8;" x="385.145305" xlink:href="#mf602aa857f" y="307.584"/>
      </g>
     </g>
     <g id="text_8">
      <!-- 70 -->
      <defs>
       <path d="M 8.203125 72.90625 
L 55.078125 72.90625 
L 55.078125 68.703125 
L 28.609375 0 
L 18.3125 0 
L 43.21875 64.59375 
L 8.203125 64.59375 
z
" id="DejaVuSans-55"/>
      </defs>
      <g transform="translate(378.782805 322.182437)scale(0.1 -0.1)">
       <use xlink:href="#DejaVuSans-55"/>
       <use x="63.623047" xlink:href="#DejaVuSans-48"/>
      </g>
     </g>
    </g>
   </g>
   <g id="matplotlib.axis_2">
    <g id="ytick_1">
     <g id="line2d_9">
      <defs>
       <path d="M 0 0 
L -3.5 0 
" id="m70f165c14d" style="stroke:#000000;stroke-width:0.8;"/>
      </defs>
      <g>
       <use style="stroke:#000000;stroke-width:0.8;" x="57.6" xlink:href="#m70f165c14d" y="289.099784"/>
      </g>
     </g>
     <g id="text_9">
      <!-- 40 -->
      <g transform="translate(37.875 292.899003)scale(0.1 -0.1)">
       <use xlink:href="#DejaVuSans-52"/>
       <use x="63.623047" xlink:href="#DejaVuSans-48"/>
      </g>
     </g>
    </g>
    <g id="ytick_2">
     <g id="line2d_10">
      <g>
       <use style="stroke:#000000;stroke-width:0.8;" x="57.6" xlink:href="#m70f165c14d" y="237.55985"/>
      </g>
     </g>
     <g id="text_10">
      <!-- 50 -->
      <g transform="translate(37.875 241.359069)scale(0.1 -0.1)">
       <use xlink:href="#DejaVuSans-53"/>
       <use x="63.623047" xlink:href="#DejaVuSans-48"/>
      </g>
     </g>
    </g>
    <g id="ytick_3">
     <g id="line2d_11">
      <g>
       <use style="stroke:#000000;stroke-width:0.8;" x="57.6" xlink:href="#m70f165c14d" y="186.019916"/>
      </g>
     </g>
     <g id="text_11">
      <!-- 60 -->
      <g transform="translate(37.875 189.819135)scale(0.1 -0.1)">
       <use xlink:href="#DejaVuSans-54"/>
       <use x="63.623047" xlink:href="#DejaVuSans-48"/>
      </g>
     </g>
    </g>
    <g id="ytick_4">
     <g id="line2d_12">
      <g>
       <use style="stroke:#000000;stroke-width:0.8;" x="57.6" xlink:href="#m70f165c14d" y="134.479982"/>
      </g>
     </g>
     <g id="text_12">
      <!-- 70 -->
      <g transform="translate(37.875 138.279201)scale(0.1 -0.1)">
       <use xlink:href="#DejaVuSans-55"/>
       <use x="63.623047" xlink:href="#DejaVuSans-48"/>
      </g>
     </g>
    </g>
    <g id="ytick_5">
     <g id="line2d_13">
      <g>
       <use style="stroke:#000000;stroke-width:0.8;" x="57.6" xlink:href="#m70f165c14d" y="82.940048"/>
      </g>
     </g>
     <g id="text_13">
      <!-- 80 -->
      <defs>
       <path d="M 31.78125 34.625 
Q 24.75 34.625 20.71875 30.859375 
Q 16.703125 27.09375 16.703125 20.515625 
Q 16.703125 13.921875 20.71875 10.15625 
Q 24.75 6.390625 31.78125 6.390625 
Q 38.8125 6.390625 42.859375 10.171875 
Q 46.921875 13.96875 46.921875 20.515625 
Q 46.921875 27.09375 42.890625 30.859375 
Q 38.875 34.625 31.78125 34.625 
z
M 21.921875 38.8125 
Q 15.578125 40.375 12.03125 44.71875 
Q 8.5 49.078125 8.5 55.328125 
Q 8.5 64.0625 14.71875 69.140625 
Q 20.953125 74.21875 31.78125 74.21875 
Q 42.671875 74.21875 48.875 69.140625 
Q 55.078125 64.0625 55.078125 55.328125 
Q 55.078125 49.078125 51.53125 44.71875 
Q 48 40.375 41.703125 38.8125 
Q 48.828125 37.15625 52.796875 32.3125 
Q 56.78125 27.484375 56.78125 20.515625 
Q 56.78125 9.90625 50.3125 4.234375 
Q 43.84375 -1.421875 31.78125 -1.421875 
Q 19.734375 -1.421875 13.25 4.234375 
Q 6.78125 9.90625 6.78125 20.515625 
Q 6.78125 27.484375 10.78125 32.3125 
Q 14.796875 37.15625 21.921875 38.8125 
z
M 18.3125 54.390625 
Q 18.3125 48.734375 21.84375 45.5625 
Q 25.390625 42.390625 31.78125 42.390625 
Q 38.140625 42.390625 41.71875 45.5625 
Q 45.3125 48.734375 45.3125 54.390625 
Q 45.3125 60.0625 41.71875 63.234375 
Q 38.140625 66.40625 31.78125 66.40625 
Q 25.390625 66.40625 21.84375 63.234375 
Q 18.3125 60.0625 18.3125 54.390625 
z
" id="DejaVuSans-56"/>
      </defs>
      <g transform="translate(37.875 86.739266)scale(0.1 -0.1)">
       <use xlink:href="#DejaVuSans-56"/>
       <use x="63.623047" xlink:href="#DejaVuSans-48"/>
      </g>
     </g>
    </g>
   </g>
   <g id="line2d_14">
    <path clip-path="url(#p2b8356216f)" d="M 73.832727 53.568 
L 78.28005 120.469022 
L 82.727372 180.870671 
L 87.174695 210.665402 
L 91.622017 240.638234 
L 96.06934 245.509993 
" style="fill:none;stroke:#1f77b4;stroke-linecap:square;stroke-width:1.5;"/>
   </g>
   <g id="line2d_15">
    <path clip-path="url(#p2b8356216f)" d="M 73.832727 53.568 
L 78.28005 120.469022 
L 82.727372 180.870671 
L 87.174695 210.665402 
L 91.622017 240.638234 
L 96.06934 245.509993 
L 100.516663 258.980414 
L 104.963985 274.21311 
" style="fill:none;stroke:#ff7f0e;stroke-linecap:square;stroke-width:1.5;"/>
   </g>
   <g id="line2d_16">
    <path clip-path="url(#p2b8356216f)" d="M 73.832727 53.568 
L 78.28005 120.469022 
L 82.727372 180.870671 
L 87.174695 210.665402 
L 91.622017 240.638234 
L 96.06934 245.509993 
L 100.516663 258.980414 
L 104.963985 274.21311 
L 109.411308 275.960878 
L 113.85863 286.683494 
L 118.305953 295.488 
" style="fill:none;stroke:#2ca02c;stroke-linecap:square;stroke-width:1.5;"/>
   </g>
   <g id="line2d_17">
    <path clip-path="url(#p2b8356216f)" d="M 73.832727 53.568 
L 78.28005 120.469022 
L 82.727372 180.870671 
L 87.174695 210.665402 
L 91.622017 240.638234 
L 96.06934 245.509993 
L 100.516663 258.980414 
L 104.963985 274.21311 
L 109.411308 275.960878 
L 113.85863 286.683494 
L 118.305953 295.488 
L 122.753275 276.769278 
L 127.200598 276.35582 
" style="fill:none;stroke:#d62728;stroke-linecap:square;stroke-width:1.5;"/>
   </g>
   <g id="line2d_18">
    <path clip-path="url(#p2b8356216f)" d="M 73.832727 53.568 
L 78.28005 120.469022 
L 82.727372 180.870671 
L 87.174695 210.665402 
L 91.622017 240.638234 
L 96.06934 245.509993 
L 100.516663 258.980414 
L 104.963985 274.21311 
L 109.411308 275.960878 
L 113.85863 286.683494 
L 118.305953 295.488 
L 122.753275 276.769278 
L 127.200598 276.35582 
L 131.64792 271.526331 
L 136.095243 278.419214 
L 140.542565 275.261297 
" style="fill:none;stroke:#9467bd;stroke-linecap:square;stroke-width:1.5;"/>
   </g>
   <g id="line2d_19">
    <path clip-path="url(#p2b8356216f)" d="M 73.832727 53.568 
L 78.28005 120.469022 
L 82.727372 180.870671 
L 87.174695 210.665402 
L 91.622017 240.638234 
L 96.06934 245.509993 
L 100.516663 258.980414 
L 104.963985 274.21311 
L 109.411308 275.960878 
L 113.85863 286.683494 
L 118.305953 295.488 
L 122.753275 276.769278 
L 127.200598 276.35582 
L 131.64792 271.526331 
L 136.095243 278.419214 
L 140.542565 275.261297 
L 144.989888 276.356573 
L 149.43721 282.372374 
" style="fill:none;stroke:#8c564b;stroke-linecap:square;stroke-width:1.5;"/>
   </g>
   <g id="line2d_20">
    <path clip-path="url(#p2b8356216f)" d="M 73.832727 53.568 
L 78.28005 120.469022 
L 82.727372 180.870671 
L 87.174695 210.665402 
L 91.622017 240.638234 
L 96.06934 245.509993 
L 100.516663 258.980414 
L 104.963985 274.21311 
L 109.411308 275.960878 
L 113.85863 286.683494 
L 118.305953 295.488 
L 122.753275 276.769278 
L 127.200598 276.35582 
L 131.64792 271.526331 
L 136.095243 278.419214 
L 140.542565 275.261297 
L 144.989888 276.356573 
L 149.43721 282.372374 
L 153.884533 287.591527 
L 158.331856 287.141721 
L 162.779178 244.386586 
" style="fill:none;stroke:#e377c2;stroke-linecap:square;stroke-width:1.5;"/>
   </g>
   <g id="line2d_21">
    <path clip-path="url(#p2b8356216f)" d="M 73.832727 53.568 
L 78.28005 120.469022 
L 82.727372 180.870671 
L 87.174695 210.665402 
L 91.622017 240.638234 
L 96.06934 245.509993 
L 100.516663 258.980414 
L 104.963985 274.21311 
L 109.411308 275.960878 
L 113.85863 286.683494 
L 118.305953 295.488 
L 122.753275 276.769278 
L 127.200598 276.35582 
L 131.64792 271.526331 
L 136.095243 278.419214 
L 140.542565 275.261297 
L 144.989888 276.356573 
L 149.43721 282.372374 
L 153.884533 287.591527 
L 158.331856 287.141721 
L 162.779178 244.386586 
L 167.226501 247.733082 
L 171.673823 252.118491 
" style="fill:none;stroke:#7f7f7f;stroke-linecap:square;stroke-width:1.5;"/>
   </g>
   <g id="line2d_22">
    <path clip-path="url(#p2b8356216f)" d="M 73.832727 53.568 
L 78.28005 120.469022 
L 82.727372 180.870671 
L 87.174695 210.665402 
L 91.622017 240.638234 
L 96.06934 245.509993 
L 100.516663 258.980414 
L 104.963985 274.21311 
L 109.411308 275.960878 
L 113.85863 286.683494 
L 118.305953 295.488 
L 122.753275 276.769278 
L 127.200598 276.35582 
L 131.64792 271.526331 
L 136.095243 278.419214 
L 140.542565 275.261297 
L 144.989888 276.356573 
L 149.43721 282.372374 
L 153.884533 287.591527 
L 158.331856 287.141721 
L 162.779178 244.386586 
L 167.226501 247.733082 
L 171.673823 252.118491 
L 176.121146 249.918304 
L 180.568468 248.165083 
L 185.015791 235.070913 
" style="fill:none;stroke:#bcbd22;stroke-linecap:square;stroke-width:1.5;"/>
   </g>
   <g id="line2d_23">
    <path clip-path="url(#p2b8356216f)" d="M 73.832727 53.568 
L 78.28005 120.469022 
L 82.727372 180.870671 
L 87.174695 210.665402 
L 91.622017 240.638234 
L 96.06934 245.509993 
L 100.516663 258.980414 
L 104.963985 274.21311 
L 109.411308 275.960878 
L 113.85863 286.683494 
L 118.305953 295.488 
L 122.753275 276.769278 
L 127.200598 276.35582 
L 131.64792 271.526331 
L 136.095243 278.419214 
L 140.542565 275.261297 
L 144.989888 276.356573 
L 149.43721 282.372374 
L 153.884533 287.591527 
L 158.331856 287.141721 
L 162.779178 244.386586 
L 167.226501 247.733082 
L 171.673823 252.118491 
L 176.121146 249.918304 
L 180.568468 248.165083 
L 185.015791 235.070913 
L 189.463113 236.449115 
L 193.910436 239.238137 
" style="fill:none;stroke:#17becf;stroke-linecap:square;stroke-width:1.5;"/>
   </g>
   <g id="line2d_24">
    <path clip-path="url(#p2b8356216f)" d="M 73.832727 53.568 
L 78.28005 120.469022 
L 82.727372 180.870671 
L 87.174695 210.665402 
L 91.622017 240.638234 
L 96.06934 245.509993 
L 100.516663 258.980414 
L 104.963985 274.21311 
L 109.411308 275.960878 
L 113.85863 286.683494 
L 118.305953 295.488 
L 122.753275 276.769278 
L 127.200598 276.35582 
L 131.64792 271.526331 
L 136.095243 278.419214 
L 140.542565 275.261297 
L 144.989888 276.356573 
L 149.43721 282.372374 
L 153.884533 287.591527 
L 158.331856 287.141721 
L 162.779178 244.386586 
L 167.226501 247.733082 
L 171.673823 252.118491 
L 176.121146 249.918304 
L 180.568468 248.165083 
L 185.015791 235.070913 
L 189.463113 236.449115 
L 193.910436 239.238137 
L 198.357758 224.459828 
L 202.805081 205.126136 
L 207.252403 209.570038 
" style="fill:none;stroke:#1f77b4;stroke-linecap:square;stroke-width:1.5;"/>
   </g>
   <g id="line2d_25">
    <path clip-path="url(#p2b8356216f)" d="M 73.832727 53.568 
L 78.28005 120.469022 
L 82.727372 180.870671 
L 87.174695 210.665402 
L 91.622017 240.638234 
L 96.06934 245.509993 
L 100.516663 258.980414 
L 104.963985 274.21311 
L 109.411308 275.960878 
L 113.85863 286.683494 
L 118.305953 295.488 
L 122.753275 276.769278 
L 127.200598 276.35582 
L 131.64792 271.526331 
L 136.095243 278.419214 
L 140.542565 275.261297 
L 144.989888 276.356573 
L 149.43721 282.372374 
L 153.884533 287.591527 
L 158.331856 287.141721 
L 162.779178 244.386586 
L 167.226501 247.733082 
L 171.673823 252.118491 
L 176.121146 249.918304 
L 180.568468 248.165083 
L 185.015791 235.070913 
L 189.463113 236.449115 
L 193.910436 239.238137 
L 198.357758 224.459828 
L 202.805081 205.126136 
L 207.252403 209.570038 
L 211.699726 198.322024 
L 216.147049 199.717849 
L 220.594371 198.842359 
" style="fill:none;stroke:#ff7f0e;stroke-linecap:square;stroke-width:1.5;"/>
   </g>
   <g id="line2d_26">
    <path clip-path="url(#p2b8356216f)" d="M 73.832727 53.568 
L 78.28005 120.469022 
L 82.727372 180.870671 
L 87.174695 210.665402 
L 91.622017 240.638234 
L 96.06934 245.509993 
L 100.516663 258.980414 
L 104.963985 274.21311 
L 109.411308 275.960878 
L 113.85863 286.683494 
L 118.305953 295.488 
L 122.753275 276.769278 
L 127.200598 276.35582 
L 131.64792 271.526331 
L 136.095243 278.419214 
L 140.542565 275.261297 
L 144.989888 276.356573 
L 149.43721 282.372374 
L 153.884533 287.591527 
L 158.331856 287.141721 
L 162.779178 244.386586 
L 167.226501 247.733082 
L 171.673823 252.118491 
L 176.121146 249.918304 
L 180.568468 248.165083 
L 185.015791 235.070913 
L 189.463113 236.449115 
L 193.910436 239.238137 
L 198.357758 224.459828 
L 202.805081 205.126136 
L 207.252403 209.570038 
L 211.699726 198.322024 
L 216.147049 199.717849 
L 220.594371 198.842359 
L 225.041694 202.957799 
L 229.489016 207.045878 
" style="fill:none;stroke:#2ca02c;stroke-linecap:square;stroke-width:1.5;"/>
   </g>
   <g id="line2d_27">
    <path clip-path="url(#p2b8356216f)" d="M 73.832727 53.568 
L 78.28005 120.469022 
L 82.727372 180.870671 
L 87.174695 210.665402 
L 91.622017 240.638234 
L 96.06934 245.509993 
L 100.516663 258.980414 
L 104.963985 274.21311 
L 109.411308 275.960878 
L 113.85863 286.683494 
L 118.305953 295.488 
L 122.753275 276.769278 
L 127.200598 276.35582 
L 131.64792 271.526331 
L 136.095243 278.419214 
L 140.542565 275.261297 
L 144.989888 276.356573 
L 149.43721 282.372374 
L 153.884533 287.591527 
L 158.331856 287.141721 
L 162.779178 244.386586 
L 167.226501 247.733082 
L 171.673823 252.118491 
L 176.121146 249.918304 
L 180.568468 248.165083 
L 185.015791 235.070913 
L 189.463113 236.449115 
L 193.910436 239.238137 
L 198.357758 224.459828 
L 202.805081 205.126136 
L 207.252403 209.570038 
L 211.699726 198.322024 
L 216.147049 199.717849 
L 220.594371 198.842359 
L 225.041694 202.957799 
L 229.489016 207.045878 
L 233.936339 210.599817 
L 238.383661 210.249357 
L 242.830984 213.587478 
" style="fill:none;stroke:#d62728;stroke-linecap:square;stroke-width:1.5;"/>
   </g>
   <g id="line2d_28">
    <path clip-path="url(#p2b8356216f)" d="M 73.832727 53.568 
L 78.28005 120.469022 
L 82.727372 180.870671 
L 87.174695 210.665402 
L 91.622017 240.638234 
L 96.06934 245.509993 
L 100.516663 258.980414 
L 104.963985 274.21311 
L 109.411308 275.960878 
L 113.85863 286.683494 
L 118.305953 295.488 
L 122.753275 276.769278 
L 127.200598 276.35582 
L 131.64792 271.526331 
L 136.095243 278.419214 
L 140.542565 275.261297 
L 144.989888 276.356573 
L 149.43721 282.372374 
L 153.884533 287.591527 
L 158.331856 287.141721 
L 162.779178 244.386586 
L 167.226501 247.733082 
L 171.673823 252.118491 
L 176.121146 249.918304 
L 180.568468 248.165083 
L 185.015791 235.070913 
L 189.463113 236.449115 
L 193.910436 239.238137 
L 198.357758 224.459828 
L 202.805081 205.126136 
L 207.252403 209.570038 
L 211.699726 198.322024 
L 216.147049 199.717849 
L 220.594371 198.842359 
L 225.041694 202.957799 
L 229.489016 207.045878 
L 233.936339 210.599817 
L 238.383661 210.249357 
L 242.830984 213.587478 
L 247.278306 206.816033 
L 251.725629 210.336283 
" style="fill:none;stroke:#9467bd;stroke-linecap:square;stroke-width:1.5;"/>
   </g>
   <g id="line2d_29">
    <path clip-path="url(#p2b8356216f)" d="M 73.832727 53.568 
L 78.28005 120.469022 
L 82.727372 180.870671 
L 87.174695 210.665402 
L 91.622017 240.638234 
L 96.06934 245.509993 
L 100.516663 258.980414 
L 104.963985 274.21311 
L 109.411308 275.960878 
L 113.85863 286.683494 
L 118.305953 295.488 
L 122.753275 276.769278 
L 127.200598 276.35582 
L 131.64792 271.526331 
L 136.095243 278.419214 
L 140.542565 275.261297 
L 144.989888 276.356573 
L 149.43721 282.372374 
L 153.884533 287.591527 
L 158.331856 287.141721 
L 162.779178 244.386586 
L 167.226501 247.733082 
L 171.673823 252.118491 
L 176.121146 249.918304 
L 180.568468 248.165083 
L 185.015791 235.070913 
L 189.463113 236.449115 
L 193.910436 239.238137 
L 198.357758 224.459828 
L 202.805081 205.126136 
L 207.252403 209.570038 
L 211.699726 198.322024 
L 216.147049 199.717849 
L 220.594371 198.842359 
L 225.041694 202.957799 
L 229.489016 207.045878 
L 233.936339 210.599817 
L 238.383661 210.249357 
L 242.830984 213.587478 
L 247.278306 206.816033 
L 251.725629 210.336283 
L 256.172951 213.251708 
L 260.620274 216.319149 
L 265.067597 201.699197 
" style="fill:none;stroke:#8c564b;stroke-linecap:square;stroke-width:1.5;"/>
   </g>
   <g id="line2d_30">
    <path clip-path="url(#p2b8356216f)" d="M 73.832727 53.568 
L 78.28005 120.469022 
L 82.727372 180.870671 
L 87.174695 210.665402 
L 91.622017 240.638234 
L 96.06934 245.509993 
L 100.516663 258.980414 
L 104.963985 274.21311 
L 109.411308 275.960878 
L 113.85863 286.683494 
L 118.305953 295.488 
L 122.753275 276.769278 
L 127.200598 276.35582 
L 131.64792 271.526331 
L 136.095243 278.419214 
L 140.542565 275.261297 
L 144.989888 276.356573 
L 149.43721 282.372374 
L 153.884533 287.591527 
L 158.331856 287.141721 
L 162.779178 244.386586 
L 167.226501 247.733082 
L 171.673823 252.118491 
L 176.121146 249.918304 
L 180.568468 248.165083 
L 185.015791 235.070913 
L 189.463113 236.449115 
L 193.910436 239.238137 
L 198.357758 224.459828 
L 202.805081 205.126136 
L 207.252403 209.570038 
L 211.699726 198.322024 
L 216.147049 199.717849 
L 220.594371 198.842359 
L 225.041694 202.957799 
L 229.489016 207.045878 
L 233.936339 210.599817 
L 238.383661 210.249357 
L 242.830984 213.587478 
L 247.278306 206.816033 
L 251.725629 210.336283 
L 256.172951 213.251708 
L 260.620274 216.319149 
L 265.067597 201.699197 
L 269.514919 204.755365 
L 273.962242 184.485369 
" style="fill:none;stroke:#e377c2;stroke-linecap:square;stroke-width:1.5;"/>
   </g>
   <g id="line2d_31">
    <path clip-path="url(#p2b8356216f)" d="M 73.832727 53.568 
L 78.28005 120.469022 
L 82.727372 180.870671 
L 87.174695 210.665402 
L 91.622017 240.638234 
L 96.06934 245.509993 
L 100.516663 258.980414 
L 104.963985 274.21311 
L 109.411308 275.960878 
L 113.85863 286.683494 
L 118.305953 295.488 
L 122.753275 276.769278 
L 127.200598 276.35582 
L 131.64792 271.526331 
L 136.095243 278.419214 
L 140.542565 275.261297 
L 144.989888 276.356573 
L 149.43721 282.372374 
L 153.884533 287.591527 
L 158.331856 287.141721 
L 162.779178 244.386586 
L 167.226501 247.733082 
L 171.673823 252.118491 
L 176.121146 249.918304 
L 180.568468 248.165083 
L 185.015791 235.070913 
L 189.463113 236.449115 
L 193.910436 239.238137 
L 198.357758 224.459828 
L 202.805081 205.126136 
L 207.252403 209.570038 
L 211.699726 198.322024 
L 216.147049 199.717849 
L 220.594371 198.842359 
L 225.041694 202.957799 
L 229.489016 207.045878 
L 233.936339 210.599817 
L 238.383661 210.249357 
L 242.830984 213.587478 
L 247.278306 206.816033 
L 251.725629 210.336283 
L 256.172951 213.251708 
L 260.620274 216.319149 
L 265.067597 201.699197 
L 269.514919 204.755365 
L 273.962242 184.485369 
L 278.409564 181.122772 
L 282.856887 184.386833 
L 287.304209 187.426013 
" style="fill:none;stroke:#7f7f7f;stroke-linecap:square;stroke-width:1.5;"/>
   </g>
   <g id="line2d_32">
    <path clip-path="url(#p2b8356216f)" d="M 73.832727 53.568 
L 78.28005 120.469022 
L 82.727372 180.870671 
L 87.174695 210.665402 
L 91.622017 240.638234 
L 96.06934 245.509993 
L 100.516663 258.980414 
L 104.963985 274.21311 
L 109.411308 275.960878 
L 113.85863 286.683494 
L 118.305953 295.488 
L 122.753275 276.769278 
L 127.200598 276.35582 
L 131.64792 271.526331 
L 136.095243 278.419214 
L 140.542565 275.261297 
L 144.989888 276.356573 
L 149.43721 282.372374 
L 153.884533 287.591527 
L 158.331856 287.141721 
L 162.779178 244.386586 
L 167.226501 247.733082 
L 171.673823 252.118491 
L 176.121146 249.918304 
L 180.568468 248.165083 
L 185.015791 235.070913 
L 189.463113 236.449115 
L 193.910436 239.238137 
L 198.357758 224.459828 
L 202.805081 205.126136 
L 207.252403 209.570038 
L 211.699726 198.322024 
L 216.147049 199.717849 
L 220.594371 198.842359 
L 225.041694 202.957799 
L 229.489016 207.045878 
L 233.936339 210.599817 
L 238.383661 210.249357 
L 242.830984 213.587478 
L 247.278306 206.816033 
L 251.725629 210.336283 
L 256.172951 213.251708 
L 260.620274 216.319149 
L 265.067597 201.699197 
L 269.514919 204.755365 
L 273.962242 184.485369 
L 278.409564 181.122772 
L 282.856887 184.386833 
L 287.304209 187.426013 
L 291.751532 189.307801 
L 296.198854 190.760313 
" style="fill:none;stroke:#bcbd22;stroke-linecap:square;stroke-width:1.5;"/>
   </g>
   <g id="line2d_33">
    <path clip-path="url(#p2b8356216f)" d="M 73.832727 53.568 
L 78.28005 120.469022 
L 82.727372 180.870671 
L 87.174695 210.665402 
L 91.622017 240.638234 
L 96.06934 245.509993 
L 100.516663 258.980414 
L 104.963985 274.21311 
L 109.411308 275.960878 
L 113.85863 286.683494 
L 118.305953 295.488 
L 122.753275 276.769278 
L 127.200598 276.35582 
L 131.64792 271.526331 
L 136.095243 278.419214 
L 140.542565 275.261297 
L 144.989888 276.356573 
L 149.43721 282.372374 
L 153.884533 287.591527 
L 158.331856 287.141721 
L 162.779178 244.386586 
L 167.226501 247.733082 
L 171.673823 252.118491 
L 176.121146 249.918304 
L 180.568468 248.165083 
L 185.015791 235.070913 
L 189.463113 236.449115 
L 193.910436 239.238137 
L 198.357758 224.459828 
L 202.805081 205.126136 
L 207.252403 209.570038 
L 211.699726 198.322024 
L 216.147049 199.717849 
L 220.594371 198.842359 
L 225.041694 202.957799 
L 229.489016 207.045878 
L 233.936339 210.599817 
L 238.383661 210.249357 
L 242.830984 213.587478 
L 247.278306 206.816033 
L 251.725629 210.336283 
L 256.172951 213.251708 
L 260.620274 216.319149 
L 265.067597 201.699197 
L 269.514919 204.755365 
L 273.962242 184.485369 
L 278.409564 181.122772 
L 282.856887 184.386833 
L 287.304209 187.426013 
L 291.751532 189.307801 
L 296.198854 190.760313 
L 300.646177 190.564882 
L 305.093499 192.998248 
L 309.540822 194.526436 
" style="fill:none;stroke:#17becf;stroke-linecap:square;stroke-width:1.5;"/>
   </g>
   <g id="line2d_34">
    <path clip-path="url(#p2b8356216f)" d="M 73.832727 53.568 
L 78.28005 120.469022 
L 82.727372 180.870671 
L 87.174695 210.665402 
L 91.622017 240.638234 
L 96.06934 245.509993 
L 100.516663 258.980414 
L 104.963985 274.21311 
L 109.411308 275.960878 
L 113.85863 286.683494 
L 118.305953 295.488 
L 122.753275 276.769278 
L 127.200598 276.35582 
L 131.64792 271.526331 
L 136.095243 278.419214 
L 140.542565 275.261297 
L 144.989888 276.356573 
L 149.43721 282.372374 
L 153.884533 287.591527 
L 158.331856 287.141721 
L 162.779178 244.386586 
L 167.226501 247.733082 
L 171.673823 252.118491 
L 176.121146 249.918304 
L 180.568468 248.165083 
L 185.015791 235.070913 
L 189.463113 236.449115 
L 193.910436 239.238137 
L 198.357758 224.459828 
L 202.805081 205.126136 
L 207.252403 209.570038 
L 211.699726 198.322024 
L 216.147049 199.717849 
L 220.594371 198.842359 
L 225.041694 202.957799 
L 229.489016 207.045878 
L 233.936339 210.599817 
L 238.383661 210.249357 
L 242.830984 213.587478 
L 247.278306 206.816033 
L 251.725629 210.336283 
L 256.172951 213.251708 
L 260.620274 216.319149 
L 265.067597 201.699197 
L 269.514919 204.755365 
L 273.962242 184.485369 
L 278.409564 181.122772 
L 282.856887 184.386833 
L 287.304209 187.426013 
L 291.751532 189.307801 
L 296.198854 190.760313 
L 300.646177 190.564882 
L 305.093499 192.998248 
L 309.540822 194.526436 
L 313.988144 193.605111 
L 318.435467 195.507701 
" style="fill:none;stroke:#1f77b4;stroke-linecap:square;stroke-width:1.5;"/>
   </g>
   <g id="line2d_35">
    <path clip-path="url(#p2b8356216f)" d="M 73.832727 53.568 
L 78.28005 120.469022 
L 82.727372 180.870671 
L 87.174695 210.665402 
L 91.622017 240.638234 
L 96.06934 245.509993 
L 100.516663 258.980414 
L 104.963985 274.21311 
L 109.411308 275.960878 
L 113.85863 286.683494 
L 118.305953 295.488 
L 122.753275 276.769278 
L 127.200598 276.35582 
L 131.64792 271.526331 
L 136.095243 278.419214 
L 140.542565 275.261297 
L 144.989888 276.356573 
L 149.43721 282.372374 
L 153.884533 287.591527 
L 158.331856 287.141721 
L 162.779178 244.386586 
L 167.226501 247.733082 
L 171.673823 252.118491 
L 176.121146 249.918304 
L 180.568468 248.165083 
L 185.015791 235.070913 
L 189.463113 236.449115 
L 193.910436 239.238137 
L 198.357758 224.459828 
L 202.805081 205.126136 
L 207.252403 209.570038 
L 211.699726 198.322024 
L 216.147049 199.717849 
L 220.594371 198.842359 
L 225.041694 202.957799 
L 229.489016 207.045878 
L 233.936339 210.599817 
L 238.383661 210.249357 
L 242.830984 213.587478 
L 247.278306 206.816033 
L 251.725629 210.336283 
L 256.172951 213.251708 
L 260.620274 216.319149 
L 265.067597 201.699197 
L 269.514919 204.755365 
L 273.962242 184.485369 
L 278.409564 181.122772 
L 282.856887 184.386833 
L 287.304209 187.426013 
L 291.751532 189.307801 
L 296.198854 190.760313 
L 300.646177 190.564882 
L 305.093499 192.998248 
L 309.540822 194.526436 
L 313.988144 193.605111 
L 318.435467 195.507701 
L 322.88279 195.652287 
L 327.330112 194.413865 
L 331.777435 191.475111 
" style="fill:none;stroke:#ff7f0e;stroke-linecap:square;stroke-width:1.5;"/>
   </g>
   <g id="line2d_36">
    <path clip-path="url(#p2b8356216f)" d="M 73.832727 53.568 
L 78.28005 120.469022 
L 82.727372 180.870671 
L 87.174695 210.665402 
L 91.622017 240.638234 
L 96.06934 245.509993 
L 100.516663 258.980414 
L 104.963985 274.21311 
L 109.411308 275.960878 
L 113.85863 286.683494 
L 118.305953 295.488 
L 122.753275 276.769278 
L 127.200598 276.35582 
L 131.64792 271.526331 
L 136.095243 278.419214 
L 140.542565 275.261297 
L 144.989888 276.356573 
L 149.43721 282.372374 
L 153.884533 287.591527 
L 158.331856 287.141721 
L 162.779178 244.386586 
L 167.226501 247.733082 
L 171.673823 252.118491 
L 176.121146 249.918304 
L 180.568468 248.165083 
L 185.015791 235.070913 
L 189.463113 236.449115 
L 193.910436 239.238137 
L 198.357758 224.459828 
L 202.805081 205.126136 
L 207.252403 209.570038 
L 211.699726 198.322024 
L 216.147049 199.717849 
L 220.594371 198.842359 
L 225.041694 202.957799 
L 229.489016 207.045878 
L 233.936339 210.599817 
L 238.383661 210.249357 
L 242.830984 213.587478 
L 247.278306 206.816033 
L 251.725629 210.336283 
L 256.172951 213.251708 
L 260.620274 216.319149 
L 265.067597 201.699197 
L 269.514919 204.755365 
L 273.962242 184.485369 
L 278.409564 181.122772 
L 282.856887 184.386833 
L 287.304209 187.426013 
L 291.751532 189.307801 
L 296.198854 190.760313 
L 300.646177 190.564882 
L 305.093499 192.998248 
L 309.540822 194.526436 
L 313.988144 193.605111 
L 318.435467 195.507701 
L 322.88279 195.652287 
L 327.330112 194.413865 
L 331.777435 191.475111 
L 336.224757 192.52233 
L 340.67208 192.163451 
" style="fill:none;stroke:#2ca02c;stroke-linecap:square;stroke-width:1.5;"/>
   </g>
   <g id="line2d_37">
    <path clip-path="url(#p2b8356216f)" d="M 73.832727 53.568 
L 78.28005 120.469022 
L 82.727372 180.870671 
L 87.174695 210.665402 
L 91.622017 240.638234 
L 96.06934 245.509993 
L 100.516663 258.980414 
L 104.963985 274.21311 
L 109.411308 275.960878 
L 113.85863 286.683494 
L 118.305953 295.488 
L 122.753275 276.769278 
L 127.200598 276.35582 
L 131.64792 271.526331 
L 136.095243 278.419214 
L 140.542565 275.261297 
L 144.989888 276.356573 
L 149.43721 282.372374 
L 153.884533 287.591527 
L 158.331856 287.141721 
L 162.779178 244.386586 
L 167.226501 247.733082 
L 171.673823 252.118491 
L 176.121146 249.918304 
L 180.568468 248.165083 
L 185.015791 235.070913 
L 189.463113 236.449115 
L 193.910436 239.238137 
L 198.357758 224.459828 
L 202.805081 205.126136 
L 207.252403 209.570038 
L 211.699726 198.322024 
L 216.147049 199.717849 
L 220.594371 198.842359 
L 225.041694 202.957799 
L 229.489016 207.045878 
L 233.936339 210.599817 
L 238.383661 210.249357 
L 242.830984 213.587478 
L 247.278306 206.816033 
L 251.725629 210.336283 
L 256.172951 213.251708 
L 260.620274 216.319149 
L 265.067597 201.699197 
L 269.514919 204.755365 
L 273.962242 184.485369 
L 278.409564 181.122772 
L 282.856887 184.386833 
L 287.304209 187.426013 
L 291.751532 189.307801 
L 296.198854 190.760313 
L 300.646177 190.564882 
L 305.093499 192.998248 
L 309.540822 194.526436 
L 313.988144 193.605111 
L 318.435467 195.507701 
L 322.88279 195.652287 
L 327.330112 194.413865 
L 331.777435 191.475111 
L 336.224757 192.52233 
L 340.67208 192.163451 
L 345.119402 194.299313 
L 349.566725 187.611257 
L 354.014047 190.014656 
" style="fill:none;stroke:#d62728;stroke-linecap:square;stroke-width:1.5;"/>
   </g>
   <g id="line2d_38">
    <path clip-path="url(#p2b8356216f)" d="M 73.832727 53.568 
L 78.28005 120.469022 
L 82.727372 180.870671 
L 87.174695 210.665402 
L 91.622017 240.638234 
L 96.06934 245.509993 
L 100.516663 258.980414 
L 104.963985 274.21311 
L 109.411308 275.960878 
L 113.85863 286.683494 
L 118.305953 295.488 
L 122.753275 276.769278 
L 127.200598 276.35582 
L 131.64792 271.526331 
L 136.095243 278.419214 
L 140.542565 275.261297 
L 144.989888 276.356573 
L 149.43721 282.372374 
L 153.884533 287.591527 
L 158.331856 287.141721 
L 162.779178 244.386586 
L 167.226501 247.733082 
L 171.673823 252.118491 
L 176.121146 249.918304 
L 180.568468 248.165083 
L 185.015791 235.070913 
L 189.463113 236.449115 
L 193.910436 239.238137 
L 198.357758 224.459828 
L 202.805081 205.126136 
L 207.252403 209.570038 
L 211.699726 198.322024 
L 216.147049 199.717849 
L 220.594371 198.842359 
L 225.041694 202.957799 
L 229.489016 207.045878 
L 233.936339 210.599817 
L 238.383661 210.249357 
L 242.830984 213.587478 
L 247.278306 206.816033 
L 251.725629 210.336283 
L 256.172951 213.251708 
L 260.620274 216.319149 
L 265.067597 201.699197 
L 269.514919 204.755365 
L 273.962242 184.485369 
L 278.409564 181.122772 
L 282.856887 184.386833 
L 287.304209 187.426013 
L 291.751532 189.307801 
L 296.198854 190.760313 
L 300.646177 190.564882 
L 305.093499 192.998248 
L 309.540822 194.526436 
L 313.988144 193.605111 
L 318.435467 195.507701 
L 322.88279 195.652287 
L 327.330112 194.413865 
L 331.777435 191.475111 
L 336.224757 192.52233 
L 340.67208 192.163451 
L 345.119402 194.299313 
L 349.566725 187.611257 
L 354.014047 190.014656 
L 358.46137 192.318711 
L 362.908692 194.475031 
" style="fill:none;stroke:#9467bd;stroke-linecap:square;stroke-width:1.5;"/>
   </g>
   <g id="line2d_39">
    <path clip-path="url(#p2b8356216f)" d="M 73.832727 53.568 
L 78.28005 120.469022 
L 82.727372 180.870671 
L 87.174695 210.665402 
L 91.622017 240.638234 
L 96.06934 245.509993 
L 100.516663 258.980414 
L 104.963985 274.21311 
L 109.411308 275.960878 
L 113.85863 286.683494 
L 118.305953 295.488 
L 122.753275 276.769278 
L 127.200598 276.35582 
L 131.64792 271.526331 
L 136.095243 278.419214 
L 140.542565 275.261297 
L 144.989888 276.356573 
L 149.43721 282.372374 
L 153.884533 287.591527 
L 158.331856 287.141721 
L 162.779178 244.386586 
L 167.226501 247.733082 
L 171.673823 252.118491 
L 176.121146 249.918304 
L 180.568468 248.165083 
L 185.015791 235.070913 
L 189.463113 236.449115 
L 193.910436 239.238137 
L 198.357758 224.459828 
L 202.805081 205.126136 
L 207.252403 209.570038 
L 211.699726 198.322024 
L 216.147049 199.717849 
L 220.594371 198.842359 
L 225.041694 202.957799 
L 229.489016 207.045878 
L 233.936339 210.599817 
L 238.383661 210.249357 
L 242.830984 213.587478 
L 247.278306 206.816033 
L 251.725629 210.336283 
L 256.172951 213.251708 
L 260.620274 216.319149 
L 265.067597 201.699197 
L 269.514919 204.755365 
L 273.962242 184.485369 
L 278.409564 181.122772 
L 282.856887 184.386833 
L 287.304209 187.426013 
L 291.751532 189.307801 
L 296.198854 190.760313 
L 300.646177 190.564882 
L 305.093499 192.998248 
L 309.540822 194.526436 
L 313.988144 193.605111 
L 318.435467 195.507701 
L 322.88279 195.652287 
L 327.330112 194.413865 
L 331.777435 191.475111 
L 336.224757 192.52233 
L 340.67208 192.163451 
L 345.119402 194.299313 
L 349.566725 187.611257 
L 354.014047 190.014656 
L 358.46137 192.318711 
L 362.908692 194.475031 
L 367.356015 196.67924 
L 371.803337 198.472607 
L 376.25066 192.766926 
" style="fill:none;stroke:#8c564b;stroke-linecap:square;stroke-width:1.5;"/>
   </g>
   <g id="line2d_40">
    <path clip-path="url(#p2b8356216f)" d="M 73.832727 53.568 
L 78.28005 120.469022 
L 82.727372 180.870671 
L 87.174695 210.665402 
L 91.622017 240.638234 
L 96.06934 245.509993 
L 100.516663 258.980414 
L 104.963985 274.21311 
L 109.411308 275.960878 
L 113.85863 286.683494 
L 118.305953 295.488 
L 122.753275 276.769278 
L 127.200598 276.35582 
L 131.64792 271.526331 
L 136.095243 278.419214 
L 140.542565 275.261297 
L 144.989888 276.356573 
L 149.43721 282.372374 
L 153.884533 287.591527 
L 158.331856 287.141721 
L 162.779178 244.386586 
L 167.226501 247.733082 
L 171.673823 252.118491 
L 176.121146 249.918304 
L 180.568468 248.165083 
L 185.015791 235.070913 
L 189.463113 236.449115 
L 193.910436 239.238137 
L 198.357758 224.459828 
L 202.805081 205.126136 
L 207.252403 209.570038 
L 211.699726 198.322024 
L 216.147049 199.717849 
L 220.594371 198.842359 
L 225.041694 202.957799 
L 229.489016 207.045878 
L 233.936339 210.599817 
L 238.383661 210.249357 
L 242.830984 213.587478 
L 247.278306 206.816033 
L 251.725629 210.336283 
L 256.172951 213.251708 
L 260.620274 216.319149 
L 265.067597 201.699197 
L 269.514919 204.755365 
L 273.962242 184.485369 
L 278.409564 181.122772 
L 282.856887 184.386833 
L 287.304209 187.426013 
L 291.751532 189.307801 
L 296.198854 190.760313 
L 300.646177 190.564882 
L 305.093499 192.998248 
L 309.540822 194.526436 
L 313.988144 193.605111 
L 318.435467 195.507701 
L 322.88279 195.652287 
L 327.330112 194.413865 
L 331.777435 191.475111 
L 336.224757 192.52233 
L 340.67208 192.163451 
L 345.119402 194.299313 
L 349.566725 187.611257 
L 354.014047 190.014656 
L 358.46137 192.318711 
L 362.908692 194.475031 
L 367.356015 196.67924 
L 371.803337 198.472607 
L 376.25066 192.766926 
L 380.697983 194.302645 
L 385.145305 194.51153 
" style="fill:none;stroke:#e377c2;stroke-linecap:square;stroke-width:1.5;"/>
   </g>
   <g id="line2d_41">
    <path clip-path="url(#p2b8356216f)" d="M 73.832727 53.568 
L 78.28005 120.469022 
L 82.727372 180.870671 
L 87.174695 210.665402 
L 91.622017 240.638234 
L 96.06934 245.509993 
L 100.516663 258.980414 
L 104.963985 274.21311 
L 109.411308 275.960878 
L 113.85863 286.683494 
L 118.305953 295.488 
L 122.753275 276.769278 
L 127.200598 276.35582 
L 131.64792 271.526331 
L 136.095243 278.419214 
L 140.542565 275.261297 
L 144.989888 276.356573 
L 149.43721 282.372374 
L 153.884533 287.591527 
L 158.331856 287.141721 
L 162.779178 244.386586 
L 167.226501 247.733082 
L 171.673823 252.118491 
L 176.121146 249.918304 
L 180.568468 248.165083 
L 185.015791 235.070913 
L 189.463113 236.449115 
L 193.910436 239.238137 
L 198.357758 224.459828 
L 202.805081 205.126136 
L 207.252403 209.570038 
L 211.699726 198.322024 
L 216.147049 199.717849 
L 220.594371 198.842359 
L 225.041694 202.957799 
L 229.489016 207.045878 
L 233.936339 210.599817 
L 238.383661 210.249357 
L 242.830984 213.587478 
L 247.278306 206.816033 
L 251.725629 210.336283 
L 256.172951 213.251708 
L 260.620274 216.319149 
L 265.067597 201.699197 
L 269.514919 204.755365 
L 273.962242 184.485369 
L 278.409564 181.122772 
L 282.856887 184.386833 
L 287.304209 187.426013 
L 291.751532 189.307801 
L 296.198854 190.760313 
L 300.646177 190.564882 
L 305.093499 192.998248 
L 309.540822 194.526436 
L 313.988144 193.605111 
L 318.435467 195.507701 
L 322.88279 195.652287 
L 327.330112 194.413865 
L 331.777435 191.475111 
L 336.224757 192.52233 
L 340.67208 192.163451 
L 345.119402 194.299313 
L 349.566725 187.611257 
L 354.014047 190.014656 
L 358.46137 192.318711 
L 362.908692 194.475031 
L 367.356015 196.67924 
L 371.803337 198.472607 
L 376.25066 192.766926 
L 380.697983 194.302645 
L 385.145305 194.51153 
L 389.592628 196.60255 
L 394.03995 196.775629 
L 398.487273 198.591874 
" style="fill:none;stroke:#7f7f7f;stroke-linecap:square;stroke-width:1.5;"/>
   </g>
   <g id="patch_3">
    <path d="M 57.6 307.584 
L 57.6 41.472 
" style="fill:none;stroke:#000000;stroke-linecap:square;stroke-linejoin:miter;stroke-width:0.8;"/>
   </g>
   <g id="patch_4">
    <path d="M 414.72 307.584 
L 414.72 41.472 
" style="fill:none;stroke:#000000;stroke-linecap:square;stroke-linejoin:miter;stroke-width:0.8;"/>
   </g>
   <g id="patch_5">
    <path d="M 57.6 307.584 
L 414.72 307.584 
" style="fill:none;stroke:#000000;stroke-linecap:square;stroke-linejoin:miter;stroke-width:0.8;"/>
   </g>
   <g id="patch_6">
    <path d="M 57.6 41.472 
L 414.72 41.472 
" style="fill:none;stroke:#000000;stroke-linecap:square;stroke-linejoin:miter;stroke-width:0.8;"/>
   </g>
   <g id="text_14">
    <!-- RMSE -->
    <defs>
     <path d="M 44.390625 34.1875 
Q 47.5625 33.109375 50.5625 29.59375 
Q 53.5625 26.078125 56.59375 19.921875 
L 66.609375 0 
L 56 0 
L 46.6875 18.703125 
Q 43.0625 26.03125 39.671875 28.421875 
Q 36.28125 30.8125 30.421875 30.8125 
L 19.671875 30.8125 
L 19.671875 0 
L 9.8125 0 
L 9.8125 72.90625 
L 32.078125 72.90625 
Q 44.578125 72.90625 50.734375 67.671875 
Q 56.890625 62.453125 56.890625 51.90625 
Q 56.890625 45.015625 53.6875 40.46875 
Q 50.484375 35.9375 44.390625 34.1875 
z
M 19.671875 64.796875 
L 19.671875 38.921875 
L 32.078125 38.921875 
Q 39.203125 38.921875 42.84375 42.21875 
Q 46.484375 45.515625 46.484375 51.90625 
Q 46.484375 58.296875 42.84375 61.546875 
Q 39.203125 64.796875 32.078125 64.796875 
z
" id="DejaVuSans-82"/>
     <path d="M 9.8125 72.90625 
L 24.515625 72.90625 
L 43.109375 23.296875 
L 61.8125 72.90625 
L 76.515625 72.90625 
L 76.515625 0 
L 66.890625 0 
L 66.890625 64.015625 
L 48.09375 14.015625 
L 38.1875 14.015625 
L 19.390625 64.015625 
L 19.390625 0 
L 9.8125 0 
z
" id="DejaVuSans-77"/>
     <path d="M 53.515625 70.515625 
L 53.515625 60.890625 
Q 47.90625 63.578125 42.921875 64.890625 
Q 37.9375 66.21875 33.296875 66.21875 
Q 25.25 66.21875 20.875 63.09375 
Q 16.5 59.96875 16.5 54.203125 
Q 16.5 49.359375 19.40625 46.890625 
Q 22.3125 44.4375 30.421875 42.921875 
L 36.375 41.703125 
Q 47.40625 39.59375 52.65625 34.296875 
Q 57.90625 29 57.90625 20.125 
Q 57.90625 9.515625 50.796875 4.046875 
Q 43.703125 -1.421875 29.984375 -1.421875 
Q 24.8125 -1.421875 18.96875 -0.25 
Q 13.140625 0.921875 6.890625 3.21875 
L 6.890625 13.375 
Q 12.890625 10.015625 18.65625 8.296875 
Q 24.421875 6.59375 29.984375 6.59375 
Q 38.421875 6.59375 43.015625 9.90625 
Q 47.609375 13.234375 47.609375 19.390625 
Q 47.609375 24.75 44.3125 27.78125 
Q 41.015625 30.8125 33.5 32.328125 
L 27.484375 33.5 
Q 16.453125 35.6875 11.515625 40.375 
Q 6.59375 45.0625 6.59375 53.421875 
Q 6.59375 63.09375 13.40625 68.65625 
Q 20.21875 74.21875 32.171875 74.21875 
Q 37.3125 74.21875 42.625 73.28125 
Q 47.953125 72.359375 53.515625 70.515625 
z
" id="DejaVuSans-83"/>
     <path d="M 9.8125 72.90625 
L 55.90625 72.90625 
L 55.90625 64.59375 
L 19.671875 64.59375 
L 19.671875 43.015625 
L 54.390625 43.015625 
L 54.390625 34.71875 
L 19.671875 34.71875 
L 19.671875 8.296875 
L 56.78125 8.296875 
L 56.78125 0 
L 9.8125 0 
z
" id="DejaVuSans-69"/>
    </defs>
    <g transform="translate(219.21375 35.472)scale(0.12 -0.12)">
     <use xlink:href="#DejaVuSans-82"/>
     <use x="69.482422" xlink:href="#DejaVuSans-77"/>
     <use x="155.761719" xlink:href="#DejaVuSans-83"/>
     <use x="219.238281" xlink:href="#DejaVuSans-69"/>
    </g>
   </g>
  </g>
 </g>
 <defs>
  <clipPath id="p2b8356216f">
   <rect height="266.112" width="357.12" x="57.6" y="41.472"/>
  </clipPath>
 </defs>
</svg>
